# xmcd CD database file
#
# Track frame offsets:
#	150
#	22538
#	56238
#	78625
#
# Disc length: 1494 seconds
#
# Revision: 0
# Processed by: cddbd v1.5.1PL2 Copyright (c) Steve Scherf et al.
# Submitted via: CDex 1.51
#
DISCID=2605d404
DTITLE=Green2 - ナミダグサ
DYEAR=2005
DGENRE=Vocal
TTITLE0=ナミダグサ
TTITLE1=ふるさとのうた
TTITLE2=ナミダグサ〜Instrumental〜
TTITLE3=ふるさとのうた〜Instrumental〜
EXTD=YEAR: 2005
EXTT0=
EXTT1=
EXTT2=
EXTT3=
PLAYORDER=
